<svg id="Layer_1" height="512" viewBox="0 0 512 512" width="512" xmlns="http://www.w3.org/2000/svg" xmlns:xlink="http://www.w3.org/1999/xlink" data-name="Layer 1"><linearGradient id="linear-gradient" gradientUnits="userSpaceOnUse" x1="255.99" x2="255.99" y1="486" y2="88.709"><stop offset=".322" stop-color="#a163f5"/><stop offset=".466" stop-color="#b074ee"/><stop offset=".752" stop-color="#d8a1dd"/><stop offset=".898" stop-color="#efbad3"/></linearGradient><linearGradient id="linear-gradient-2" x1="173.565" x2="173.565" xlink:href="#linear-gradient" y1="486" y2="88.709"/><linearGradient id="linear-gradient-3" x1="109.371" x2="109.371" xlink:href="#linear-gradient" y1="486" y2="88.709"/><linearGradient id="linear-gradient-4" x1="194.367" x2="194.367" xlink:href="#linear-gradient" y1="486" y2="88.709"/><linearGradient id="linear-gradient-5" x1="200.475" x2="200.475" xlink:href="#linear-gradient" y1="486" y2="88.709"/><path d="m371.481 308.915a6 6 0 0 0 -8.485 0l-11.777 11.776-12.112-12.112a184.4 184.4 0 0 0 -14.359-244.561 184.363 184.363 0 0 0 -260.73-.038 184.37 184.37 0 0 0 244.548 275.114l12.125 12.125-11.776 11.781a6 6 0 0 0 0 8.485l117.561 117.557a44.241 44.241 0 1 0 62.566-62.566zm-299.014 7.311a172.363 172.363 0 0 1 .033-243.759 173.5 173.5 0 0 1 96.751-48.628 170.533 170.533 0 0 1 24.849-1.816 173.257 173.257 0 0 1 122.161 50.477 172.364 172.364 0 0 1 -.034 243.759c-67.215 67.197-176.565 67.182-243.76-.033zm245.308 15.107q3.533-3.186 6.935-6.585 3.414-3.414 6.623-6.973l11.4 11.4-13.557 13.557zm3.868 35.9 45.6-45.6 18.551 18.567-45.6 45.6zm27.04 27.041 45.6-45.595 10.617 10.621-45.6 45.6zm131.874 86.278a32.28 32.28 0 0 1 -45.6 0l-67.174-67.174 45.6-45.6 67.174 67.174a32.279 32.279 0 0 1 0 45.605z" fill="url(#linear-gradient)"/><path d="m170.428 80.33a5.973 5.973 0 0 0 1.2-.121c1.966-.4 3.97-.75 5.956-1.046a6 6 0 0 0 -1.77-11.869c-2.19.327-4.4.715-6.567 1.154a6 6 0 0 0 1.184 11.882z" fill="url(#linear-gradient-2)"/><path d="m144.491 76.135a128.971 128.971 0 0 0 -78.591 118.847 6 6 0 0 0 12 0 116.986 116.986 0 0 1 71.29-107.8 6 6 0 0 0 -4.7-11.042z" fill="url(#linear-gradient-3)"/><path d="m303.417 85.345a154.138 154.138 0 0 0 -203.575-12.784 6 6 0 1 0 7.332 9.5 143.255 143.255 0 0 1 66.474-28.383 140.789 140.789 0 0 1 20.494-1.5 142.938 142.938 0 0 1 100.788 41.652c55.435 55.452 55.421 145.883-.031 201.318a141.475 141.475 0 0 1 -100.534 41.852h-.023a141.453 141.453 0 0 1 -100.542-41.883c-50-50.012-54.883-128.4-14.682-183.952a6 6 0 0 0 -.85-8.013l-.023-.021a6.021 6.021 0 0 0 -8.889 1.007c-43.556 60.241-38.244 145.274 15.955 199.49a153.346 153.346 0 0 0 109.029 45.372h.025a153.4 153.4 0 0 0 109.018-45.365c60.132-60.114 60.147-158.157.034-218.29z" fill="url(#linear-gradient-4)"/><path d="m157.9 156.257a28.158 28.158 0 0 0 -20.99-8.2l-8.283.337a6 6 0 0 0 .488 11.99l8.283-.337a16.1 16.1 0 0 1 12.016 4.694l4.43 4.43-14.944 14.945a43.823 43.823 0 0 0 -36.011 12.365 6 6 0 1 0 8.485 8.485 31.416 31.416 0 0 1 18.356-8.888 56.773 56.773 0 0 0 77.064 77.69 31.648 31.648 0 0 1 -5.514 13.91 6.008 6.008 0 0 0 .568 7.762l.065.065a5.932 5.932 0 0 0 8.987-.65 44.067 44.067 0 0 0 7.988-30.219c.051-.05.1-.1.156-.148l15.056-15.058 4.1 4.106a16.114 16.114 0 0 1 4.694 12.016l-.337 8.283a6 6 0 0 0 5.752 6.239h.248a6 6 0 0 0 5.991-5.756l.336-8.283a28.147 28.147 0 0 0 -8.2-20.99l-4.106-4.105 11.776-11.776a44.179 44.179 0 0 0 25.05 7.87q1.99 0 3.983-.185a6 6 0 0 0 -1.114-11.948 31.917 31.917 0 0 1 -19.449-4.543 33.259 33.259 0 0 0 7.191-20.78 33.659 33.659 0 0 0 -1.853-11 38.554 38.554 0 0 0 6.779-34.558l3.36-2.541a8.389 8.389 0 0 1 10.948.757l.319.318a6 6 0 1 0 8.482-8.488l-.317-.317a20.44 20.44 0 0 0 -26.671-1.841l-1.448 1.095a34.832 34.832 0 0 0 -3.68-4.337 37.023 37.023 0 0 0 -6.253-5.019l1.344-1.777a20.439 20.439 0 0 0 -1.84-26.669l-.319-.319a6 6 0 0 0 -8.489 8.483l.321.32a8.391 8.391 0 0 1 .756 10.947l-3.172 4.194a37.339 37.339 0 0 0 -31.7 7.014 33.629 33.629 0 0 0 -33.761 4.656 31.672 31.672 0 0 1 -3.927-24.737 6 6 0 0 0 -11.611-3.03 43.767 43.767 0 0 0 6.761 36.224l-11.714 11.734zm-10.547 99.665a44.552 44.552 0 0 1 -11.452-19.61l26.842 4.172 3.92 26.808a44.551 44.551 0 0 1 -19.309-11.37zm104.374-41.088-41.167 41.166a44.441 44.441 0 0 1 -31.514 13.027l-4.633-31.682 65.146-65.145 12.125 12.124a21.571 21.571 0 0 1 .044 30.508zm-11.755-75-1.268 1.676a6 6 0 1 0 9.571 7.238l4.147-5.483a25.042 25.042 0 0 1 5.036 3.9 23.428 23.428 0 0 1 2.593 3.091l-5.849 4.423a6 6 0 0 0 7.238 9.572l2.943-2.226a26.492 26.492 0 0 1 -2.974 15.132c-.4-.446-.813-.884-1.241-1.311l-32.734-32.735c-.024-.023-.048-.044-.072-.068a25.322 25.322 0 0 1 12.611-3.209zm-51.532 11.713a21.6 21.6 0 0 1 30.508.045l12.125 12.124-65.122 65.122-31.7-4.927a44.426 44.426 0 0 1 13.021-31.195z" fill="url(#linear-gradient-5)"/></svg>