<?xml version="1.0" encoding="utf-8"?>
<!-- Generator: Adobe Illustrator 27.0.0, SVG Export Plug-In . SVG Version: 6.00 Build 0)  -->
<svg version="1.1" id="Layer_1" xmlns="http://www.w3.org/2000/svg" xmlns:xlink="http://www.w3.org/1999/xlink" x="0px" y="0px"
	 viewBox="0 0 512 512" style="enable-background:new 0 0 512 512;" xml:space="preserve">
<style type="text/css">
	.st0{opacity:0.45;}
	.st1{fill:#699EFA;}
	.st2{fill:#FFFFFF;}
</style>
<g class="st0">
	<circle class="st1" cx="256" cy="256" r="229.3"/>
</g>
<g>
	<path class="st2" d="M234.7,330c-8.4,0-16.2-3.3-22.2-9.2l-42.6-42.6c-0.2-0.2-0.5-0.5-0.7-0.7c-5.8-6-8.9-13.9-8.8-22.3
		s3.5-16.2,9.6-22c5.9-5.7,13.6-8.8,21.8-8.8c8.5,0,16.5,3.4,22.5,9.5l20.5,20.5l63.2-63.2c5.9-5.9,13.8-9.2,22.2-9.2
		s16.2,3.3,22.2,9.2c12.2,12.2,12.2,32.1,0,44.3l-85.3,85.3C250.9,326.7,243,330,234.7,330z"/>
	<path class="st1" d="M320,192c5.5,0,10.9,2.1,15.1,6.2l0,0c8.3,8.3,8.3,21.8,0,30.2l-85.3,85.3c-4.2,4.2-9.6,6.2-15.1,6.2
		c-5.5,0-10.9-2.1-15.1-6.2l-42.7-42.7c-0.2-0.2-0.4-0.3-0.5-0.5c-8.2-8.5-8-22,0.5-30.2c4.1-4,9.5-6,14.8-6
		c5.6,0,11.2,2.2,15.3,6.5l27.6,27.6l70.3-70.3C309.1,194.1,314.5,192,320,192 M320,172c-11,0-21.4,4.3-29.2,12.1l-56.1,56.1
		l-13.3-13.3c-7.7-7.9-18.5-12.5-29.6-12.5c-10.8,0-21,4.1-28.7,11.6c-7.9,7.7-12.4,18-12.6,29c-0.2,11,3.9,21.5,11.6,29.4
		c0.3,0.3,0.6,0.6,0.9,0.9l42.6,42.6c7.8,7.8,18.2,12.1,29.2,12.1c11,0,21.4-4.3,29.2-12.1l85.3-85.3c16.1-16.1,16.1-42.3,0-58.4
		C341.4,176.3,331,172,320,172L320,172z"/>
</g>
<g>
	<path class="st1" d="M256,50.7c27.7,0,54.6,5.4,79.9,16.1c24.4,10.3,46.4,25.1,65.3,44s33.7,40.8,44,65.3
		c10.7,25.3,16.1,52.2,16.1,79.9s-5.4,54.6-16.1,79.9c-10.3,24.4-25.1,46.4-44,65.3c-18.9,18.9-40.8,33.7-65.3,44
		c-25.3,10.7-52.2,16.1-79.9,16.1s-54.6-5.4-79.9-16.1c-24.4-10.3-46.4-25.1-65.3-44c-18.9-18.9-33.7-40.8-44-65.3
		c-10.7-25.3-16.1-52.2-16.1-79.9s5.4-54.6,16.1-79.9c10.3-24.4,25.1-46.4,44-65.3s40.8-33.7,65.3-44
		C201.4,56.1,228.3,50.7,256,50.7 M256,26.7C129.3,26.7,26.7,129.3,26.7,256S129.3,485.3,256,485.3S485.3,382.7,485.3,256
		S382.7,26.7,256,26.7L256,26.7z"/>
</g>
</svg>
