<svg height="512" viewBox="0 0 61 61" width="512" xmlns="http://www.w3.org/2000/svg"><g id="Page-1" fill="none" fill-rule="evenodd"><g id="037---Search-Code-for-Bugs"><path id="Path" d="m54 3v6h-53v-6c-.02636998-1.07266157.81756235-1.96571165 1.89-2h49.22c1.0724377.03428835 1.91637.92733843 1.89 2z" fill="#c6d8fb"/><path id="Path" d="m52.11 1h-3c1.0724377.03428835 1.91637.92733843 1.89 2v6h3v-6c.02637-1.07266157-.8175623-1.96571165-1.89-2z" fill="#a4c3fd"/><path id="Path" d="m54 9v36c.02637 1.0726616-.8175623 1.9657116-1.89 2h-.87l-.19-.19c-.3900375-.3877236-1.0199625-.3877236-1.41 0l-3.29-3.29c4.3183273-5.4787657 4.8512545-13.0396185 1.3441475-19.0699605s-10.3423274-9.3060511-17.2397724-8.2619837c-6.897445 1.0440673-12.4569761 6.1959719-14.0222327 12.9941184-1.5652567 6.7981465 1.1814984 13.8625533 6.9278576 17.8178258h-20.47c-1.07243765-.0342884-1.91636998-.9273384-1.89-2v-36z" fill="#e8edfc"/><path id="Path" d="m20.98 20.98c2.8183676-2.8251001 6.5443672-4.5634276 10.52-4.908-7.6916272-.6837331-14.8774032 3.9039526-17.4942114 11.1690014s-.0068054 15.38109 6.3542114 19.7589986h3c-4.1590339-2.8617524-6.830384-7.424526-7.2902396-12.4520227-.4598556-5.0274966 1.3393952-9.9991876 4.9102396-13.5679773z" fill="#cad9fc"/><path id="Path" d="m51 9v36c.0010909.5816615-.2467729 1.1359882-.681 1.523.2728751-.0095631.5375203.09434.731.287l.19.19h.87c1.0724377-.0342884 1.91637-.9273384 1.89-2v-36z" fill="#cad9fc"/><path id="Path" d="m46.35 43.52c-4.3689408 5.5447638-11.7099536 7.8125872-18.4450201 5.6981303-6.7350666-2.1144569-11.4626115-8.1711731-11.8784239-15.2180979-.4158123-7.0469248 3.566639-13.6175849 10.0063025-16.5094327s13.9964375-1.5030864 18.9871415 3.4894003c6.0937418 6.0895464 6.6653068 15.7760688 1.33 22.54z" fill="#e8edfc"/><path id="Path" d="m45.02 20.98c-3.5552278-3.5609623-8.5083469-5.3590324-13.52-4.908 8.7678799.7727778 15.4940374 8.1134803 15.4992381 16.915348.0052006 8.8018678-6.7122776 16.1505136-15.4792381 16.933652 7.1177342.6273146 13.8672669-3.2660627 16.8878551-9.7415326s1.6665715-14.1488798-3.3878551-19.1994674z" fill="#cad9fc"/><circle id="Oval" cx="33" cy="33" fill="#e8edfc" r="13"/><path id="Path" d="m42.192 23.808c-2.8079992-2.8083085-6.7481976-4.1747746-10.692-3.708 6.556458.7537817 11.5054553 6.3043539 11.5054553 12.904s-4.9489973 12.1502183-11.5054553 12.904c5.4972341.6455264 10.799848-2.2626741 13.2103973-7.2451975 2.4105493-4.9825233 1.3996722-10.9451966-2.5183973-14.8548025z" fill="#cad9fc"/><path id="Path" d="m58.12 58.12c-1.1712702 1.1698135-3.0687298 1.1698135-4.24 0l-7.07-7.07c-.3877236-.3900375-.3877236-1.0199625 0-1.41l2.83-2.83c.3900375-.3877236 1.0199625-.3877236 1.41 0l7.07 7.07c1.1698135 1.1712702 1.1698135 3.0687298 0 4.24z" fill="#e8edfc"/><path id="Path" d="m58.12 53.88-7.07-7.07c-.3900375-.3877236-1.0199625-.3877236-1.41 0l-.8.795 6.28 6.275c.6676919.651767.9889811 1.5802053.866953 2.5052576-.1220282.9250524-.6730869 1.7384149-1.486953 2.1947424 1.2988601.7523337 2.9541287.4258494 3.8700466-.7633258.915918-1.1891752.8089698-2.8729413-.2500466-3.9366742z" fill="#cad9fc"/><path id="Path" d="m49.64 46.81-2.83 2.83-3.29-3.29c1.0532654-.826593 2.003407-1.7767346 2.83-2.83z" fill="#c6d8fb"/><path id="Path" d="m31 31h4c1.1045695 0 2 .8954305 2 2v4c0 2.209139-1.790861 4-4 4s-4-1.790861-4-4v-4c0-1.1045695.8954305-2 2-2z" fill="#c6d8fb"/><path id="Path" d="m35 31h-3c1.1045695 0 2 .8954305 2 2v4c-.0032957 1.6269922-.9917334 3.08988-2.5 3.7 1.2315812.5040787 2.6334251.3608094 3.7375754-.3819826 1.1041502-.7427919 1.7651788-1.9872732 1.7624246-3.3180174v-4c0-1.1045695-.8954305-2-2-2z" fill="#a4c3fd"/><path id="Path" d="m33 28c1.1045695 0 2 .8954305 2 2v1h-4v-1c0-1.1045695.8954305-2 2-2z" fill="#c6d8fb"/><path id="Path" d="m2.89 47h3c-1.07243765-.0342884-1.91636998-.9273384-1.89-2v-42c-.02636998-1.07266157.81756235-1.96571165 1.89-2h-3c-1.07243765.03428835-1.91636998.92733843-1.89 2v42c-.02636998 1.0726616.81756235 1.9657116 1.89 2z" fill="#fff"/><path id="Rectangle" d="m0 37h2v8h-2z" fill="#fff"/><g fill="#428dff"><circle id="Oval" cx="1" cy="41" r="1"/><path id="Path" d="m51.707 3.293c-.3904999-.39038194-1.0235001-.39038194-1.414 0l-.293.293-.293-.293c-.3923789-.37897221-1.0160848-.37355237-1.4018186.01218142-.3857338.3857338-.3911536 1.00943969-.0121814 1.40181858l.293.293-.293.293c-.2599566.25107447-.3642126.62287789-.2726972.97250732.0915155.34962944.3645604.6226744.7141899.71418984.3496294.09151544.7214328-.01274058.9725073-.27269716l.293-.293.293.293c.3923789.37897221 1.0160848.37355237 1.4018186-.01218142.3857338-.3857338.3911536-1.00943969.0121814-1.40181858l-.293-.293.293-.293c.3903819-.39049985.3903819-1.02350015 0-1.414z"/><path id="Shape" d="m42.9 23.1c-4.722534-4.7230158-12.1237232-5.4523703-17.6773278-1.7420226-5.5536047 3.7103478-7.7128829 10.8270238-5.1573155 16.997784 2.5555673 6.1707602 9.1142256 9.6769776 15.6649897 8.374405s11.2691717-7.0511541 11.2696536-13.7301664c-.0014876-3.7127841-1.4760406-7.2732901-4.1-9.9zm-1.415 18.385c-4.0482548 4.0479863-10.3922381 4.6725907-15.1522079 1.4918286s-6.6102014-9.2809996-4.4191626-14.5700363c2.1910387-5.2890368 7.8131099-8.2937946 13.4279659-7.1766767 5.614856 1.117118 9.6586731 6.0449774 9.6584046 11.7698844-.0016851 3.182235-1.2658313 6.2338086-3.515 8.485z" fill-rule="nonzero"/><path id="Path" d="m26.637 27.636c.2651948-.0000566.5195073-.1054506.707-.293 1.4965898-1.5052817 3.533356-2.3490128 5.656-2.343.5522847 0 1-.4477153 1-1s-.4477153-1-1-1c-2.653253-.0070035-5.1990507 1.0476841-7.07 2.929-.2859079.2859943-.3714219.7160366-.216678 1.0896546.1547439.3736179.5192821.6172591.923678.6173454z"/><path id="Shape" d="m53.353 47.7c1.0173462-.5140339 1.6555054-1.5601966 1.647-2.7v-42c.0278864-1.62550044-1.2645918-2.96717329-2.89-3h-49.22c-1.62540818.03282671-2.91788636 1.37449956-2.89 3v34c0 .5522847.44771525 1 1 1s1-.4477153 1-1v-27h51v35c.0219391.5189387-.3720199.9615894-.89 1h-.475c-.357769-.3113947-.8156971-.4835615-1.29-.485-.1728296.0023024-.3446173.0271796-.511.074l-2.171-2.171c5.5254634-7.7834691 4.0104627-18.5273083-3.4518612-24.479355-7.4623238-5.9520467-18.2740678-5.0401796-24.6340728 2.0776482-6.3600051 7.1178279-6.054125 17.9636449.696934 24.7117068.1.1.2.178.3.272h-17.684c-.51798009-.0384106-.91193914-.4810613-.89-1 0-.5522847-.44771525-1-1-1s-1 .4477153-1 1c-.02788636 1.6255004 1.26459182 2.9671733 2.89 3h20.161c6.2044322 4.1108577 14.3001132 3.9748893 20.363-.342l2.174 2.175c-.0460016.1661874-.0705344.337581-.073.51-.0014371.5306972.2095879 1.0398938.586 1.414l7.071 7.071c1.0042979 1.0398263 2.4915116 1.4568504 3.8900293 1.0907886 1.3985177-.3660617 2.4906976-1.4582416 2.8567593-2.8567593.3660618-1.3985177-.0509623-2.8857314-1.0907886-3.8900293zm-51.353-39.7v-5c-.02193914-.51893875.37201991-.96158937.89-1h49.22c.5179801.03841063.9119391.48106125.89 1v5zm19.687 36.314c-4.5763834-4.5758103-5.9456428-11.4578528-3.4692642-17.436889 2.4763786-5.9790363 8.3106859-9.877528 14.7822642-9.877528s12.3058856 3.8984917 14.7822642 9.877528c2.4763786 5.9790362 1.1071192 12.8610787-3.4692642 17.436889-2.9862632 3.0268868-7.0609639 4.7308309-11.313 4.7308309s-8.3267368-1.7039441-11.313-4.7308309zm24.041 1.414c.238-.238.45-.494.673-.742l1.821 1.821-1.416 1.416-1.822-1.823c.248-.223.505-.433.744-.672zm11.686 11.686c-.791167.755814-2.036833.755814-2.828 0l-7.071-7.071 2.828-2.828.185.185.012.012 6.874 6.874c.7807639.7809997.7807639 2.0470003 0 2.828z" fill-rule="nonzero"/><path id="Path" d="m4.293 19.707c.39049985.3903819 1.02350015.3903819 1.414 0l3-3c.39038194-.3904999.39038194-1.0235001 0-1.414l-3-3c-.39237889-.3789722-1.01608478-.3735524-1.40181858.0121814-.38573379.3857338-.39115363 1.0094397-.01218142 1.4018186l2.293 2.293-2.293 2.293c-.39038194.3904999-.39038194 1.0235001 0 1.414z"/><path id="Path" d="m15 20c.5522847 0 1-.4477153 1-1s-.4477153-1-1-1h-4c-.5522847 0-1 .4477153-1 1s.4477153 1 1 1z"/><path id="Shape" d="m40 34h-2v-.586l1.707-1.707c.3789722-.3923789.3735524-1.0160848-.0121814-1.4018186s-1.0094397-.3911536-1.4018186-.0121814l-.908.908c-.3522581-.4671681-.8337992-.8207618-1.385-1.017v-.184c0-1.6568542-1.3431458-3-3-3s-3 1.3431458-3 3v.184c-.5510744.195966-1.0326013.5492015-1.385 1.016l-.908-.908c-.3923789-.3789722-1.0160848-.3735524-1.4018186.0121814s-.3911536 1.0094397-.0121814 1.4018186l1.707 1.708v.586h-2c-.5522847 0-1 .4477153-1 1s.4477153 1 1 1h2v.586l-1.707 1.707c-.2599566.2510745-.3642126.6228779-.2726972.9725073.0915155.3496295.3645604.6226744.7141899.7141899.3496294.0915154.7214328-.0127406.9725073-.2726972l.713-.713c.7913464 1.8250811 2.5907413 3.0061339 4.58 3.0061339s3.7886536-1.1810528 4.58-3.0061339l.713.713c.3923789.3789722 1.0160848.3735524 1.4018186-.0121814s.3911536-1.0094397.0121814-1.4018186l-1.707-1.707v-.586h2c.5522847 0 1-.4477153 1-1s-.4477153-1-1-1zm-7-5c.5522847 0 1 .4477153 1 1h-2c0-.5522847.4477153-1 1-1zm0 11c-1.6568542 0-3-1.3431458-3-3v-4c0-.5522847.4477153-1 1-1h4c.5522847 0 1 .4477153 1 1v4c0 1.6568542-1.3431458 3-3 3z" fill-rule="nonzero"/><circle id="Oval" cx="5" cy="5" r="1"/><circle id="Oval" cx="9" cy="5" r="1"/><circle id="Oval" cx="13" cy="5" r="1"/></g></g></g></svg>